<svg xmlns="http://www.w3.org/2000/svg" viewBox="0 0 1280 640" width="1280" height="640">
  <defs>
    <linearGradient id="amber" x1="0%" y1="0%" x2="100%" y2="100%">
      <stop offset="0%" stop-color="#f59e0b"/>
      <stop offset="100%" stop-color="#fbbf24"/>
    </linearGradient>
    <linearGradient id="amberDark" x1="0%" y1="0%" x2="100%" y2="100%">
      <stop offset="0%" stop-color="#d97706"/>
      <stop offset="100%" stop-color="#f59e0b"/>
    </linearGradient>
    <linearGradient id="amberLight" x1="0%" y1="100%" x2="100%" y2="0%">
      <stop offset="0%" stop-color="#fbbf24"/>
      <stop offset="100%" stop-color="#fcd34d"/>
    </linearGradient>
    <linearGradient id="steel" x1="0%" y1="0%" x2="0%" y2="100%">
      <stop offset="0%" stop-color="#475569"/>
      <stop offset="100%" stop-color="#334155"/>
    </linearGradient>
    <linearGradient id="steelLight" x1="0%" y1="0%" x2="0%" y2="100%">
      <stop offset="0%" stop-color="#64748b"/>
      <stop offset="100%" stop-color="#475569"/>
    </linearGradient>
    <linearGradient id="crystalGlow" x1="50%" y1="0%" x2="50%" y2="100%">
      <stop offset="0%" stop-color="#fbbf24" stop-opacity="0.3"/>
      <stop offset="100%" stop-color="#f59e0b" stop-opacity="0"/>
    </linearGradient>
    <filter id="glow">
      <feGaussianBlur stdDeviation="8" result="blur"/>
      <feMerge>
        <feMergeNode in="blur"/>
        <feMergeNode in="SourceGraphic"/>
      </feMerge>
    </filter>
    <filter id="softGlow">
      <feGaussianBlur stdDeviation="20" result="blur"/>
      <feMerge>
        <feMergeNode in="blur"/>
        <feMergeNode in="SourceGraphic"/>
      </feMerge>
    </filter>
  </defs>

  <!-- Background -->
  <rect width="1280" height="640" fill="#0f172a"/>

  <!-- Subtle hex grid -->
  <g opacity="0.04" stroke="#94a3b8" stroke-width="0.5" fill="none">
    <!-- Row 1 -->
    <polygon points="40,20 60,10 80,20 80,40 60,50 40,40"/>
    <polygon points="80,20 100,10 120,20 120,40 100,50 80,40"/>
    <polygon points="120,20 140,10 160,20 160,40 140,50 120,40"/>
    <polygon points="160,20 180,10 200,20 200,40 180,50 160,40"/>
    <polygon points="200,20 220,10 240,20 240,40 220,50 200,40"/>
    <polygon points="240,20 260,10 280,20 280,40 260,50 240,40"/>
    <polygon points="280,20 300,10 320,20 320,40 300,50 280,40"/>
    <polygon points="320,20 340,10 360,20 360,40 340,50 320,40"/>
    <polygon points="360,20 380,10 400,20 400,40 380,50 360,40"/>
    <polygon points="400,20 420,10 440,20 440,40 420,50 400,40"/>
    <polygon points="440,20 460,10 480,20 480,40 460,50 440,40"/>
    <polygon points="480,20 500,10 520,20 520,40 500,50 480,40"/>
    <polygon points="520,20 540,10 560,20 560,40 540,50 520,40"/>
    <polygon points="560,20 580,10 600,20 600,40 580,50 560,40"/>
    <polygon points="600,20 620,10 640,20 640,40 620,50 600,40"/>
    <polygon points="640,20 660,10 680,20 680,40 660,50 640,40"/>
    <polygon points="680,20 700,10 720,20 720,40 700,50 680,40"/>
    <polygon points="720,20 740,10 760,20 760,40 740,50 720,40"/>
    <polygon points="760,20 780,10 800,20 800,40 780,50 760,40"/>
    <polygon points="800,20 820,10 840,20 840,40 820,50 800,40"/>
    <polygon points="840,20 860,10 880,20 880,40 860,50 840,40"/>
    <polygon points="880,20 900,10 920,20 920,40 900,50 880,40"/>
    <polygon points="920,20 940,10 960,20 960,40 940,50 920,40"/>
    <polygon points="960,20 980,10 1000,20 1000,40 980,50 960,40"/>
    <polygon points="1000,20 1020,10 1040,20 1040,40 1020,50 1000,40"/>
    <polygon points="1040,20 1060,10 1080,20 1080,40 1060,50 1040,40"/>
    <polygon points="1080,20 1100,10 1120,20 1120,40 1100,50 1080,40"/>
    <polygon points="1120,20 1140,10 1160,20 1160,40 1140,50 1120,40"/>
    <polygon points="1160,20 1180,10 1200,20 1200,40 1180,50 1160,40"/>
    <polygon points="1200,20 1220,10 1240,20 1240,40 1220,50 1200,40"/>
    <!-- Row 2 (offset) -->
    <polygon points="60,50 80,40 100,50 100,70 80,80 60,70"/>
    <polygon points="100,50 120,40 140,50 140,70 120,80 100,70"/>
    <polygon points="140,50 160,40 180,50 180,70 160,80 140,70"/>
    <polygon points="180,50 200,40 220,50 220,70 200,80 180,70"/>
    <polygon points="220,50 240,40 260,50 260,70 240,80 220,70"/>
    <polygon points="260,50 280,40 300,50 300,70 280,80 260,70"/>
    <polygon points="300,50 320,40 340,50 340,70 320,80 300,70"/>
    <polygon points="340,50 360,40 380,50 380,70 360,80 340,70"/>
    <polygon points="380,50 400,40 420,50 420,70 400,80 380,70"/>
    <polygon points="420,50 440,40 460,50 460,70 440,80 420,70"/>
    <polygon points="460,50 480,40 500,50 500,70 480,80 460,70"/>
    <polygon points="500,50 520,40 540,50 540,70 520,80 500,70"/>
    <polygon points="540,50 560,40 580,50 580,70 560,80 540,70"/>
    <polygon points="580,50 600,40 620,50 620,70 600,80 580,70"/>
    <polygon points="620,50 640,40 660,50 660,70 640,80 620,70"/>
    <polygon points="660,50 680,40 700,50 700,70 680,80 660,70"/>
    <polygon points="700,50 720,40 740,50 740,70 720,80 700,70"/>
    <polygon points="740,50 760,40 780,50 780,70 760,80 740,70"/>
    <polygon points="780,50 800,40 820,50 820,70 800,80 780,70"/>
    <polygon points="820,50 840,40 860,50 860,70 840,80 820,70"/>
    <polygon points="860,50 880,40 900,50 900,70 880,80 860,70"/>
    <polygon points="900,50 920,40 940,50 940,70 920,80 900,70"/>
    <polygon points="940,50 960,40 980,50 980,70 960,80 940,70"/>
    <polygon points="980,50 1000,40 1020,50 1020,70 1000,80 980,70"/>
    <polygon points="1020,50 1040,40 1060,50 1060,70 1040,80 1020,70"/>
    <polygon points="1060,50 1080,40 1100,50 1100,70 1080,80 1060,70"/>
    <polygon points="1100,50 1120,40 1140,50 1140,70 1120,80 1100,70"/>
    <polygon points="1140,50 1160,40 1180,50 1180,70 1160,80 1140,70"/>
    <polygon points="1180,50 1200,40 1220,50 1220,70 1200,80 1180,70"/>
    <!-- Row 3 -->
    <polygon points="40,80 60,70 80,80 80,100 60,110 40,100"/>
    <polygon points="80,80 100,70 120,80 120,100 100,110 80,100"/>
    <polygon points="120,80 140,70 160,80 160,100 140,110 120,100"/>
    <polygon points="160,80 180,70 200,80 200,100 180,110 160,100"/>
    <polygon points="200,80 220,70 240,80 240,100 220,110 200,100"/>
    <polygon points="240,80 260,70 280,80 280,100 260,110 240,100"/>
    <polygon points="280,80 300,70 320,80 320,100 300,110 280,100"/>
    <polygon points="320,80 340,70 360,80 360,100 340,110 320,100"/>
    <polygon points="360,80 380,70 400,80 400,100 380,110 360,100"/>
    <polygon points="400,80 420,70 440,80 440,100 420,110 400,100"/>
    <polygon points="440,80 460,70 480,80 480,100 460,110 440,100"/>
    <polygon points="480,80 500,70 520,80 520,100 500,110 480,100"/>
    <polygon points="520,80 540,70 560,80 560,100 540,110 520,100"/>
    <polygon points="560,80 580,70 600,80 600,100 580,110 560,100"/>
    <polygon points="600,80 620,70 640,80 640,100 620,110 600,100"/>
    <polygon points="640,80 660,70 680,80 680,100 660,110 640,100"/>
    <polygon points="680,80 700,70 720,80 720,100 700,110 680,100"/>
    <polygon points="720,80 740,70 760,80 760,100 740,110 720,100"/>
    <polygon points="760,80 780,70 800,80 800,100 780,110 760,100"/>
    <polygon points="800,80 820,70 840,80 840,100 820,110 800,100"/>
    <polygon points="840,80 860,70 880,80 880,100 860,110 840,100"/>
    <polygon points="880,80 900,70 920,80 920,100 900,110 880,100"/>
    <polygon points="920,80 940,70 960,80 960,100 940,110 920,100"/>
    <polygon points="960,80 980,70 1000,80 1000,100 980,110 960,100"/>
    <polygon points="1000,80 1020,70 1040,80 1040,100 1020,110 1000,100"/>
    <polygon points="1040,80 1060,70 1080,80 1080,100 1060,110 1040,100"/>
    <polygon points="1080,80 1100,70 1120,80 1120,100 1100,110 1080,100"/>
    <polygon points="1120,80 1140,70 1160,80 1160,100 1140,110 1120,100"/>
    <polygon points="1160,80 1180,70 1200,80 1200,100 1180,110 1160,100"/>
    <polygon points="1200,80 1220,70 1240,80 1240,100 1220,110 1200,100"/>
    <!-- Row 4 (offset) -->
    <polygon points="60,110 80,100 100,110 100,130 80,140 60,130"/>
    <polygon points="100,110 120,100 140,110 140,130 120,140 100,130"/>
    <polygon points="140,110 160,100 180,110 180,130 160,140 140,130"/>
    <polygon points="180,110 200,100 220,110 220,130 200,140 180,130"/>
    <polygon points="220,110 240,100 260,110 260,130 240,140 220,130"/>
    <polygon points="260,110 280,100 300,110 300,130 280,140 260,130"/>
    <polygon points="300,110 320,100 340,110 340,130 320,140 300,130"/>
    <polygon points="340,110 360,100 380,110 380,130 360,140 340,130"/>
    <polygon points="380,110 400,100 420,110 420,130 400,140 380,130"/>
    <polygon points="420,110 440,100 460,110 460,130 440,140 420,130"/>
    <polygon points="460,110 480,100 500,110 500,130 480,140 460,130"/>
    <polygon points="500,110 520,100 540,110 540,130 520,140 500,130"/>
    <polygon points="540,110 560,100 580,110 580,130 560,140 540,130"/>
    <polygon points="580,110 600,100 620,110 620,130 600,140 580,130"/>
    <polygon points="620,110 640,100 660,110 660,130 640,140 620,130"/>
    <polygon points="660,110 680,100 700,110 700,130 680,140 660,130"/>
    <polygon points="700,110 720,100 740,110 740,130 720,140 700,130"/>
    <polygon points="740,110 760,100 780,110 780,130 760,140 740,130"/>
    <polygon points="780,110 800,100 820,110 820,130 800,140 780,130"/>
    <polygon points="820,110 840,100 860,110 860,130 840,140 820,130"/>
    <polygon points="860,110 880,100 900,110 900,130 880,140 860,130"/>
    <polygon points="900,110 920,100 940,110 940,130 920,140 900,130"/>
    <polygon points="940,110 960,100 980,110 980,130 960,140 940,130"/>
    <polygon points="980,110 1000,100 1020,110 1020,130 1000,140 980,130"/>
    <polygon points="1040,110 1060,100 1080,110 1080,130 1060,140 1040,130"/>
    <polygon points="1120,110 1140,100 1160,110 1160,130 1140,140 1120,130"/>
    <polygon points="1200,110 1220,100 1240,110 1240,130 1220,140 1200,130"/>
    <!-- Row 5 -->
    <polygon points="40,140 60,130 80,140 80,160 60,170 40,160"/>
    <polygon points="80,140 100,130 120,140 120,160 100,170 80,160"/>
    <polygon points="120,140 140,130 160,140 160,160 140,170 120,160"/>
    <polygon points="160,140 180,130 200,140 200,160 180,170 160,160"/>
    <polygon points="200,140 220,130 240,140 240,160 220,170 200,160"/>
    <polygon points="240,140 260,130 280,140 280,160 260,170 240,160"/>
    <polygon points="280,140 300,130 320,140 320,160 300,170 280,160"/>
    <polygon points="320,140 340,130 360,140 360,160 340,170 320,160"/>
    <polygon points="360,140 380,130 400,140 400,160 380,170 360,160"/>
    <polygon points="400,140 420,130 440,140 440,160 420,170 400,160"/>
    <polygon points="440,140 460,130 480,140 480,160 460,170 440,160"/>
    <polygon points="480,140 500,130 520,140 520,160 500,170 480,160"/>
    <polygon points="520,140 540,130 560,140 560,160 540,170 520,160"/>
    <polygon points="560,140 580,130 600,140 600,160 580,170 560,160"/>
    <polygon points="640,140 660,130 680,140 680,160 660,170 640,160"/>
    <polygon points="760,140 780,130 800,140 800,160 780,170 760,160"/>
    <polygon points="880,140 900,130 920,140 920,160 900,170 880,160"/>
    <polygon points="1000,140 1020,130 1040,140 1040,160 1020,170 1000,160"/>
    <polygon points="1120,140 1140,130 1160,140 1160,160 1140,170 1120,160"/>
    <!-- Row 6 (offset, sparse) -->
    <polygon points="60,170 80,160 100,170 100,190 80,200 60,190"/>
    <polygon points="140,170 160,160 180,170 180,190 160,200 140,190"/>
    <polygon points="260,170 280,160 300,170 300,190 280,200 260,190"/>
    <polygon points="380,170 400,160 420,170 420,190 400,200 380,190"/>
    <polygon points="500,170 520,160 540,170 540,190 520,200 500,190"/>
    <polygon points="740,170 760,160 780,170 780,190 760,200 740,190"/>
    <polygon points="980,170 1000,160 1020,170 1020,190 1000,200 980,190"/>
    <!-- Row 7 (very sparse) -->
    <polygon points="40,200 60,190 80,200 80,220 60,230 40,220"/>
    <polygon points="200,200 220,190 240,200 240,220 220,230 200,220"/>
    <polygon points="440,200 460,190 480,200 480,220 460,230 440,220"/>
    <polygon points="840,200 860,190 880,200 880,220 860,230 840,220"/>
    <polygon points="1080,200 1100,190 1120,200 1120,220 1100,230 1080,220"/>
  </g>

  <!-- Ambient glow behind crystal -->
  <ellipse cx="290" cy="320" rx="160" ry="160" fill="url(#crystalGlow)" filter="url(#softGlow)"/>

  <!-- Central crystal (intact core) -->
  <g filter="url(#glow)">
    <!-- Main diamond facet - centre -->
    <polygon points="290,200 370,290 290,400 210,290" fill="url(#amber)" opacity="0.95"/>
    <!-- Top-left facet -->
    <polygon points="290,200 210,290 200,240" fill="url(#amberDark)" opacity="0.9"/>
    <!-- Top-right facet -->
    <polygon points="290,200 370,290 380,240" fill="url(#amberLight)" opacity="0.9"/>
    <!-- Bottom-left facet -->
    <polygon points="210,290 290,400 200,360" fill="url(#amberDark)" opacity="0.85"/>
    <!-- Bottom-right facet -->
    <polygon points="370,290 290,400 380,360" fill="url(#amber)" opacity="0.85"/>
    <!-- Internal facet lines -->
    <line x1="290" y1="200" x2="290" y2="400" stroke="#fcd34d" stroke-width="0.5" opacity="0.4"/>
    <line x1="210" y1="290" x2="370" y2="290" stroke="#fcd34d" stroke-width="0.5" opacity="0.4"/>
  </g>

  <!-- Fragment 1 - top-left, drifting away -->
  <g transform="translate(-55, -45) rotate(-12, 180, 220)">
    <polygon points="180,180 220,200 190,230 160,210" fill="url(#amberDark)" opacity="0.75"/>
    <line x1="180" y1="180" x2="190" y2="230" stroke="#fcd34d" stroke-width="0.5" opacity="0.3"/>
  </g>

  <!-- Fragment 2 - top-right, drifting away -->
  <g transform="translate(60, -50) rotate(15, 400, 210)">
    <polygon points="400,180 440,210 420,240 385,215" fill="url(#amberLight)" opacity="0.7"/>
    <line x1="400" y1="180" x2="420" y2="240" stroke="#fcd34d" stroke-width="0.5" opacity="0.3"/>
  </g>

  <!-- Fragment 3 - bottom-left, drifting -->
  <g transform="translate(-65, 50) rotate(8, 170, 380)">
    <polygon points="155,370 190,390 175,420 145,400" fill="url(#amberDark)" opacity="0.65"/>
    <line x1="155" y1="370" x2="175" y2="420" stroke="#fcd34d" stroke-width="0.5" opacity="0.3"/>
  </g>

  <!-- Fragment 4 - bottom-right, drifting -->
  <g transform="translate(55, 55) rotate(-10, 420, 380)">
    <polygon points="405,365 440,385 430,415 400,400" fill="url(#amber)" opacity="0.7"/>
    <line x1="405" y1="365" x2="430" y2="415" stroke="#fcd34d" stroke-width="0.5" opacity="0.3"/>
  </g>

  <!-- Fragment 5 - far top, small -->
  <g transform="translate(-20, -80) rotate(-5, 260, 150)">
    <polygon points="250,140 275,155 260,175 240,160" fill="url(#amberLight)" opacity="0.5"/>
  </g>

  <!-- Fragment 6 - far right, small -->
  <g transform="translate(80, 10) rotate(20, 440, 300)">
    <polygon points="435,280 460,300 450,325 430,310" fill="url(#amber)" opacity="0.5"/>
  </g>

  <!-- Fragment 7 - far bottom, small -->
  <g transform="translate(10, 85) rotate(5, 310, 450)">
    <polygon points="295,445 320,460 310,480 290,468" fill="url(#amberDark)" opacity="0.45"/>
  </g>

  <!-- Fragment 8 - far left, tiny -->
  <g transform="translate(-90, -10) rotate(-15, 130, 280)">
    <polygon points="120,270 140,280 135,298 118,290" fill="url(#amberLight)" opacity="0.4"/>
  </g>

  <!-- Floating particles (scattered dots suggesting entropy) -->
  <g fill="#fbbf24" opacity="0.3">
    <circle cx="130" cy="200" r="2"/>
    <circle cx="450" cy="180" r="1.5"/>
    <circle cx="160" cy="430" r="1.5"/>
    <circle cx="430" cy="440" r="2"/>
    <circle cx="100" cy="340" r="1"/>
    <circle cx="480" cy="290" r="1"/>
    <circle cx="250" cy="470" r="1.5"/>
    <circle cx="340" cy="160" r="1"/>
    <circle cx="480" cy="200" r="1.5"/>
    <circle cx="110" cy="420" r="1"/>
  </g>

  <!-- Subtle connection lines between fragments and core -->
  <g stroke="#fbbf24" stroke-width="0.5" opacity="0.08" stroke-dasharray="4,6">
    <line x1="160" y1="195" x2="240" y2="240"/>
    <line x1="430" y1="195" x2="340" y2="240"/>
    <line x1="140" y1="400" x2="230" y2="360"/>
    <line x1="440" y1="400" x2="340" y2="360"/>
  </g>

  <!-- Divider -->
  <g transform="translate(590, 220)">
    <line x1="0" y1="0" x2="0" y2="200" stroke="#334155" stroke-width="1" opacity="0.5"/>
    <line x1="6" y1="0" x2="6" y2="200" stroke="#334155" stroke-width="1" opacity="0.5"/>
    <!-- Key icon -->
    <g transform="translate(-6, 82)" fill="none" stroke="#64748b" stroke-width="1.5">
      <circle cx="10" cy="8" r="6"/>
      <line x1="10" y1="14" x2="10" y2="32"/>
      <line x1="10" y1="24" x2="15" y2="24"/>
      <line x1="10" y1="29" x2="15" y2="29"/>
    </g>
  </g>

  <!-- Title: shamir-words -->
  <text x="660" y="310" font-family="'SF Mono', 'Fira Code', 'JetBrains Mono', 'Menlo', monospace"
        font-size="52" font-weight="bold" fill="#f8fafc">shamir-words</text>

  <!-- Tagline -->
  <text x="660" y="350" font-family="'Inter', -apple-system, 'Segoe UI', sans-serif"
        font-size="18" fill="#94a3b8">split secrets into speakable words.</text>

  <!-- Keyword ticker -->
  <text x="40" y="622" font-family="'SF Mono', 'Fira Code', 'JetBrains Mono', 'Menlo', monospace"
        font-size="12" fill="#94a3b8" opacity="0.06"
        letter-spacing="6">SHAMIR  SECRET-SHARING  BIP39  MNEMONIC  THRESHOLD  GF256  CRYPTOGRAPHY  KEY-BACKUP  SOCIAL-RECOVERY  TYPESCRIPT  POLYNOMIAL  LAGRANGE  CHECKSUM</text>

</svg>
